<mxfile host="app.diagrams.net" agent="Mozilla/5.0 (Macintosh; Intel Mac OS X 10_15_7) AppleWebKit/537.36 (KHTML, like Gecko) Chrome/137.0.0.0 Safari/537.36" version="27.2.0">
  <diagram name="페이지-1" id="PCOD-Qwq9QeSII8PNxn0">
    <mxGraphModel dx="1018" dy="568" grid="1" gridSize="10" guides="1" tooltips="1" connect="1" arrows="1" fold="1" page="1" pageScale="1" pageWidth="827" pageHeight="1169" math="0" shadow="0">
      <root>
        <mxCell id="0" />
        <mxCell id="1" parent="0" />
        <mxCell id="2IXnDno4injUiYX8DniN-10" value="" style="edgeStyle=orthogonalEdgeStyle;rounded=0;orthogonalLoop=1;jettySize=auto;html=1;" edge="1" parent="1" source="2IXnDno4injUiYX8DniN-2" target="2IXnDno4injUiYX8DniN-3">
          <mxGeometry relative="1" as="geometry" />
        </mxCell>
        <mxCell id="2IXnDno4injUiYX8DniN-2" value="Start" style="verticalLabelPosition=bottom;verticalAlign=top;html=1;shape=mxgraph.flowchart.on-page_reference;" vertex="1" parent="1">
          <mxGeometry x="120" y="100" width="60" height="60" as="geometry" />
        </mxCell>
        <mxCell id="2IXnDno4injUiYX8DniN-5" value="" style="edgeStyle=orthogonalEdgeStyle;rounded=0;orthogonalLoop=1;jettySize=auto;html=1;" edge="1" parent="1" source="2IXnDno4injUiYX8DniN-3" target="2IXnDno4injUiYX8DniN-4">
          <mxGeometry relative="1" as="geometry" />
        </mxCell>
        <mxCell id="2IXnDno4injUiYX8DniN-3" value="TimeUser Insert" style="rounded=1;whiteSpace=wrap;html=1;absoluteArcSize=1;arcSize=14;strokeWidth=2;" vertex="1" parent="1">
          <mxGeometry x="250" y="100" width="100" height="60" as="geometry" />
        </mxCell>
        <mxCell id="2IXnDno4injUiYX8DniN-7" value="" style="edgeStyle=orthogonalEdgeStyle;rounded=0;orthogonalLoop=1;jettySize=auto;html=1;" edge="1" parent="1" source="2IXnDno4injUiYX8DniN-4" target="2IXnDno4injUiYX8DniN-6">
          <mxGeometry relative="1" as="geometry" />
        </mxCell>
        <mxCell id="2IXnDno4injUiYX8DniN-4" value="TimelineTemplate Insert" style="whiteSpace=wrap;html=1;rounded=1;absoluteArcSize=1;arcSize=14;strokeWidth=2;" vertex="1" parent="1">
          <mxGeometry x="420" y="100" width="120" height="60" as="geometry" />
        </mxCell>
        <mxCell id="2IXnDno4injUiYX8DniN-9" value="" style="edgeStyle=orthogonalEdgeStyle;rounded=0;orthogonalLoop=1;jettySize=auto;html=1;" edge="1" parent="1" source="2IXnDno4injUiYX8DniN-6" target="2IXnDno4injUiYX8DniN-8">
          <mxGeometry relative="1" as="geometry" />
        </mxCell>
        <mxCell id="2IXnDno4injUiYX8DniN-6" value="TimelineItem Insert" style="rounded=1;whiteSpace=wrap;html=1;absoluteArcSize=1;arcSize=14;strokeWidth=2;" vertex="1" parent="1">
          <mxGeometry x="620" y="100" width="120" height="60" as="geometry" />
        </mxCell>
        <mxCell id="2IXnDno4injUiYX8DniN-22" value="" style="edgeStyle=orthogonalEdgeStyle;rounded=0;orthogonalLoop=1;jettySize=auto;html=1;" edge="1" parent="1" source="2IXnDno4injUiYX8DniN-8" target="2IXnDno4injUiYX8DniN-21">
          <mxGeometry relative="1" as="geometry" />
        </mxCell>
        <mxCell id="2IXnDno4injUiYX8DniN-8" value="TimeLIne View" style="rounded=1;whiteSpace=wrap;html=1;absoluteArcSize=1;arcSize=14;strokeWidth=2;" vertex="1" parent="1">
          <mxGeometry x="820" y="100" width="120" height="60" as="geometry" />
        </mxCell>
        <mxCell id="2IXnDno4injUiYX8DniN-18" value="" style="edgeStyle=orthogonalEdgeStyle;rounded=0;orthogonalLoop=1;jettySize=auto;html=1;" edge="1" parent="1" source="2IXnDno4injUiYX8DniN-15" target="2IXnDno4injUiYX8DniN-17">
          <mxGeometry relative="1" as="geometry" />
        </mxCell>
        <mxCell id="2IXnDno4injUiYX8DniN-15" value="TimeLineTemplate Copy to Daily Timeline" style="rounded=1;whiteSpace=wrap;html=1;absoluteArcSize=1;arcSize=14;strokeWidth=2;" vertex="1" parent="1">
          <mxGeometry x="620" y="230" width="120" height="60" as="geometry" />
        </mxCell>
        <mxCell id="2IXnDno4injUiYX8DniN-20" value="" style="edgeStyle=orthogonalEdgeStyle;rounded=0;orthogonalLoop=1;jettySize=auto;html=1;" edge="1" parent="1" source="2IXnDno4injUiYX8DniN-17" target="2IXnDno4injUiYX8DniN-19">
          <mxGeometry relative="1" as="geometry" />
        </mxCell>
        <mxCell id="2IXnDno4injUiYX8DniN-17" value="Daily TimeLIne Item Copied Too" style="rounded=1;whiteSpace=wrap;html=1;absoluteArcSize=1;arcSize=14;strokeWidth=2;" vertex="1" parent="1">
          <mxGeometry x="620" y="360" width="120" height="60" as="geometry" />
        </mxCell>
        <mxCell id="2IXnDno4injUiYX8DniN-19" value="Daily TimeLine Item Updated" style="rounded=1;whiteSpace=wrap;html=1;absoluteArcSize=1;arcSize=14;strokeWidth=2;" vertex="1" parent="1">
          <mxGeometry x="620" y="490" width="120" height="60" as="geometry" />
        </mxCell>
        <mxCell id="2IXnDno4injUiYX8DniN-23" style="edgeStyle=orthogonalEdgeStyle;rounded=0;orthogonalLoop=1;jettySize=auto;html=1;" edge="1" parent="1" source="2IXnDno4injUiYX8DniN-21" target="2IXnDno4injUiYX8DniN-15">
          <mxGeometry relative="1" as="geometry">
            <Array as="points">
              <mxPoint x="1080" y="260" />
            </Array>
          </mxGeometry>
        </mxCell>
        <mxCell id="2IXnDno4injUiYX8DniN-21" value="Timeline Selected for copying Daily TimeLIne" style="rounded=1;whiteSpace=wrap;html=1;absoluteArcSize=1;arcSize=14;strokeWidth=2;" vertex="1" parent="1">
          <mxGeometry x="1020" y="100" width="120" height="60" as="geometry" />
        </mxCell>
      </root>
    </mxGraphModel>
  </diagram>
</mxfile>
